<svg width="634" height="300" viewBox="0 0 634 300" fill="none" xmlns="http://www.w3.org/2000/svg">
<g clip-path="url(#clip0_2080_1316)">
<mask id="mask0_2080_1316" style="mask-type:luminance" maskUnits="userSpaceOnUse" x="0" y="0" width="634" height="300">
<path d="M634 0H0V300H634V0Z" fill="white"/>
</mask>
<g mask="url(#mask0_2080_1316)">
<path d="M152.8 0C181.7 0 209.9 8.3 234.2 24C258.4 39.7 277.7 62 289.5 88.3C301.4 114.6 305.4 143.8 301.1 172.3C296.8 200.8 284.4 227.5 265.3 249.2C246.2 270.9 221.3 286.5 193.5 294.4C165.7 302.2 136.3 301.9 108.7 293.4C81.1 284.9 56.6 268.6 38 246.5C19.4 224.4 7.6 197.4 4 168.8L26.3 166C29.4 190.3 39.4 213.3 55.2 232.1C71 250.9 91.9 264.7 115.3 271.9C138.8 279.1 163.8 279.4 187.4 272.7C211 266 232.2 252.7 248.4 234.3C264.6 215.9 275.2 193.2 278.8 168.9C282.4 144.6 279 119.8 268.9 97.5C258.8 75.1 242.5 56.2 221.9 42.9C201.3 29.6 177.3 22.5 152.7 22.5V0H152.8Z" fill="#1BA39C"/>
<path d="M152.8 0C181.7 0 209.9 8.3 234.2 24C258.4 39.7 277.7 62 289.5 88.3C301.4 114.6 305.4 143.8 301.1 172.3C296.8 200.8 284.4 227.5 265.3 249.2C246.2 270.9 221.3 286.5 193.5 294.4C165.7 302.2 136.3 301.9 108.7 293.4C81.1 284.9 56.6 268.6 38 246.5C19.4 224.4 7.6 197.4 4 168.8L26.3 166C29.4 190.3 39.4 213.3 55.2 232.1C71 250.9 91.9 264.7 115.3 271.9C138.8 279.1 163.8 279.4 187.4 272.7C211 266 232.2 252.7 248.4 234.3C264.6 215.9 275.2 193.2 278.8 168.9C282.4 144.6 279 119.8 268.9 97.5C258.8 75.1 242.5 56.2 221.9 42.9C201.3 29.6 177.3 22.5 152.7 22.5V0H152.8Z" stroke="white" stroke-width="4"/>
<path d="M3.99994 168.3C1.39994 147.2 3.29994 125.7 9.59994 105.4C15.8999 85.1 26.4999 66.3 40.5999 50.4C54.6999 34.5 72.0999 21.7 91.4999 13C111 4.39998 132 -0.100017 153.3 -1.68716e-05L153.2 22.5C135.1 22.4 117.2 26.2 100.7 33.6C84.1999 41 69.4999 51.8 57.4999 65.4C45.4999 79 36.4999 94.9 31.0999 112.1C25.6999 129.4 24.0999 147.6 26.2999 165.6L3.99994 168.3Z" fill="#E8E9E9"/>
<path d="M3.99994 168.3C1.39994 147.2 3.29994 125.7 9.59994 105.4C15.8999 85.1 26.4999 66.3 40.5999 50.4C54.6999 34.5 72.0999 21.7 91.4999 13C111 4.39998 132 -0.100017 153.3 -1.68716e-05L153.2 22.5C135.1 22.4 117.2 26.2 100.7 33.6C84.1999 41 69.4999 51.8 57.4999 65.4C45.4999 79 36.4999 94.9 31.0999 112.1C25.6999 129.4 24.0999 147.6 26.2999 165.6L3.99994 168.3Z" stroke="white" stroke-width="4"/>
<path d="M346.7 133.3C343.4 133.3 340.2 132.4 338.1 130.8L340.4 127C341.9 128 344 129.1 346.7 129.1C348.5 129.1 349.8 128.5 349.8 127.3C349.8 126.1 348.5 125.8 345.9 125.4L344.9 125.2C340.9 124.6 338.7 122.8 338.8 119.2C338.9 115.4 342.1 113 346.7 113C349.3 113 351.6 113.4 354.6 115.1L352.5 118.9C351.1 118.1 349.2 117.2 346.9 117.2C345.1 117.2 343.8 117.8 343.8 119C343.8 120.2 345.7 120.5 347.8 120.9L348.6 121C352.4 121.7 354.8 123.4 354.8 126.6C354.9 131.4 350.9 133.3 346.7 133.3ZM364 133.3C360.3 133.3 358.7 131.1 358.7 127.7V123.1H356.1V119.2H358.7V115.2H363.1V119.2H367.8V123.1H363.1V127.1C363.1 128.7 363.9 129.2 365 129.2C365.8 129.2 366.7 128.8 367.4 128.3L368.9 131.7C367.6 132.7 366.3 133.3 364 133.3ZM375.9 133.3C372.2 133.3 369.5 130.1 369.5 126C369.5 122 372.2 118.8 375.9 118.8C377.7 118.8 379 119.6 379.8 120.7V119.2H384V133H379.8V131.5C379.1 132.6 377.8 133.3 375.9 133.3ZM377 129.3C378.7 129.3 379.9 128 379.9 126.1C379.9 124.2 378.7 122.9 377 122.9C375.2 122.9 374.1 124.3 374.1 126.1C374.1 127.9 375.2 129.3 377 129.3ZM391.6 138.6H386.8L391.5 129.9L385.7 119.2H390.7L393.8 125.4L396.9 119.2H401.7L391.6 138.6ZM405.6 117.6C404.1 117.6 403 116.5 403 115C403 113.5 404.1 112.4 405.6 112.4C407.1 112.4 408.2 113.5 408.2 115C408.2 116.5 407 117.6 405.6 117.6ZM407.8 133H403.4V119.3H407.8V133ZM415.2 133H410.8V119.3H415V121C415.9 119.6 417.3 118.9 419.1 118.9C421.8 118.9 424 120.8 424 124V133H419.6V125.5C419.6 123.9 418.8 123 417.4 123C416.2 123 415.2 123.8 415.2 125.6V133ZM433.2 138.9C430.9 138.9 428.6 138.3 426.9 137.1L428.5 133.6C429.8 134.6 431.3 135 432.9 135C434.7 135 436.4 134 436.4 131.8V131C435.6 132 434.4 132.7 432.6 132.7C428.9 132.7 426.2 129.7 426.2 125.8C426.2 121.9 428.9 118.9 432.6 118.9C434.4 118.9 435.6 119.6 436.4 120.7V119.3H440.6V131.7C440.7 136.2 437.7 138.9 433.2 138.9ZM433.6 128.8C435.3 128.8 436.4 127.6 436.4 125.9C436.4 124.2 435.3 123 433.6 123C431.9 123 430.7 124.3 430.7 125.9C430.8 127.5 431.9 128.8 433.6 128.8ZM456.8 133.3C452.5 133.3 449.4 130.2 449.4 126.1C449.4 121.9 452.6 118.9 456.8 118.9C461.1 118.9 464.3 122 464.3 126.1C464.2 130.3 461.1 133.3 456.8 133.3ZM456.8 129.3C458.5 129.3 459.8 128 459.8 126.1C459.8 124.2 458.5 122.9 456.8 122.9C455.1 122.9 453.8 124.2 453.8 126.1C453.8 128 455.1 129.3 456.8 129.3ZM471 133H466.6V119.3H470.8V121C471.7 119.6 473.1 118.9 474.9 118.9C477.6 118.9 479.8 120.8 479.8 124V133H475.4V125.5C475.4 123.9 474.6 123 473.2 123C472 123 471 123.8 471 125.6V133ZM495.8 133.3C492.1 133.3 490.5 131.1 490.5 127.7V123.1H487.9V119.2H490.5V115.2H494.9V119.2H499.6V123.1H494.9V127.1C494.9 128.7 495.7 129.2 496.8 129.2C497.6 129.2 498.5 128.8 499.2 128.3L500.7 131.7C499.4 132.7 498 133.3 495.8 133.3ZM506.8 133H502.4V112.8H506.8V120.7C507.7 119.5 509 118.9 510.7 118.9C513.4 118.9 515.6 120.8 515.6 124V133H511.2V125.5C511.2 123.9 510.4 123 509 123C507.8 123 506.8 123.8 506.8 125.6V133ZM525 133.3C520.7 133.3 517.8 130.4 517.8 126.1C517.8 121.8 520.7 118.8 524.8 118.8C528.9 118.8 531.7 121.7 531.7 126C531.7 126.4 531.7 127.1 531.6 127.4H522.3C522.7 128.9 523.7 129.6 525.2 129.6C526.2 129.6 527.3 129.2 528.2 128.4L531 131C529.6 132.5 527.6 133.3 525 133.3ZM522.3 124.7H527.3C527 123.3 526.1 122.6 524.8 122.6C523.5 122.6 522.7 123.3 522.3 124.7ZM542.5 117.6C541 117.6 539.9 116.5 539.9 115C539.9 113.5 541 112.4 542.5 112.4C544 112.4 545.1 113.5 545.1 115C545.1 116.5 544 117.6 542.5 117.6ZM540.2 138.9C539.6 138.9 538.6 138.8 538.1 138.6L538.5 134.7C538.8 134.8 539 134.8 539.4 134.8C539.9 134.8 540.3 134.5 540.3 133.6V119.2H544.7V133.8C544.7 137.1 543 138.9 540.2 138.9ZM554.5 133.3C550.2 133.3 547.1 130.2 547.1 126.1C547.1 121.9 550.3 118.9 554.5 118.9C558.8 118.9 562 122 562 126.1C562 130.3 558.8 133.3 554.5 133.3ZM554.5 129.3C556.2 129.3 557.5 128 557.5 126.1C557.5 124.2 556.2 122.9 554.5 122.9C552.8 122.9 551.5 124.2 551.5 126.1C551.5 128 552.8 129.3 554.5 129.3ZM572.5 133.3C570.6 133.3 569.4 132.5 568.6 131.5V133H564.4V112.8H568.8V120.5C569.6 119.5 570.8 118.8 572.6 118.8C576.3 118.8 579 122 579 126C578.9 130.2 576.2 133.3 572.5 133.3ZM571.5 129.3C573.3 129.3 574.4 127.9 574.4 126.1C574.4 124.3 573.2 122.9 571.5 122.9C569.8 122.9 568.6 124.2 568.6 126.1C568.6 128 569.7 129.3 571.5 129.3ZM342.8 165H341.4V154.4H337.3V153.1H346.9V154.4H342.8V165ZM350 165H348.7V152.8H350V158.1C350.7 157.2 351.7 156.8 352.7 156.8C354.7 156.8 356.1 158.1 356.1 160V165H354.8V160.4C354.8 158.9 353.9 158 352.5 158C351.1 158 350 158.9 350 160.5V165ZM362.4 165.1C360 165.1 358.3 163.4 358.3 160.9C358.3 158.4 360 156.7 362.3 156.7C364.5 156.7 366.1 158.4 366.1 160.9C366.1 161.1 366.1 161.2 366.1 161.4H359.6C359.8 163.1 361 164 362.4 164C363.4 164 364.3 163.6 364.9 163L365.6 163.9C364.7 164.8 363.6 165.1 362.4 165.1ZM359.7 160.4H364.9C364.7 158.9 363.8 157.9 362.4 157.9C360.8 157.9 359.9 158.9 359.7 160.4ZM374.3 165H373V157H374.3V158.1C375 157.1 376 156.8 377 156.8C378.4 156.8 379.5 157.4 380 158.5C380.6 157.3 381.9 156.8 383 156.8C385 156.8 386.4 158.1 386.4 160V165H385.1V160.4C385.1 158.9 384.2 158 382.8 158C381.4 158 380.3 158.9 380.3 160.5V165H379V160.4C379 158.9 378.1 158 376.7 158C375.3 158 374.2 158.9 374.2 160.5V165H374.3ZM392.7 165.1C390.4 165.1 388.7 163.3 388.7 160.9C388.7 158.5 390.5 156.7 392.7 156.7C394 156.7 395 157.2 395.6 158.1V156.9H396.9V164.9H395.6V163.7C395 164.6 394 165.1 392.7 165.1ZM392.9 164C394.6 164 395.8 162.7 395.8 161C395.8 159.3 394.6 158 392.9 158C391.2 158 390 159.3 390 161C390 162.6 391.2 164 392.9 164ZM400.6 155C400.1 155 399.7 154.6 399.7 154.1C399.7 153.6 400.1 153.2 400.6 153.2C401.1 153.2 401.5 153.6 401.5 154.1C401.5 154.6 401.1 155 400.6 155ZM399.2 168.5C398.8 168.5 398.3 168.4 398 168.2L398.3 167.1C398.5 167.2 398.8 167.3 399 167.3C399.5 167.3 399.8 167 399.8 166.2V156.9H401.1V166.3C401.2 167.7 400.4 168.5 399.2 168.5ZM407.8 165.1C405.4 165.1 403.6 163.3 403.6 160.9C403.6 158.5 405.4 156.7 407.8 156.7C410.2 156.7 412 158.5 412 160.9C412 163.3 410.2 165.1 407.8 165.1ZM407.8 164C409.5 164 410.7 162.7 410.7 161C410.7 159.3 409.4 158 407.8 158C406.1 158 404.9 159.3 404.9 161C404.9 162.7 406.1 164 407.8 164ZM415.7 165H414.4V157H415.7V158.1C416.3 157.3 417.1 156.8 418.1 156.8C418.7 156.8 419.2 156.9 419.6 157.1L419.3 158.3C418.9 158.1 418.4 158 417.9 158C416.6 158 415.7 159 415.7 160.5V165ZM422.1 155C421.6 155 421.2 154.6 421.2 154.1C421.2 153.6 421.6 153.2 422.1 153.2C422.6 153.2 423 153.6 423 154.1C423 154.6 422.6 155 422.1 155ZM422.7 165H421.4V157H422.7V165ZM429.2 165.1C427.5 165.1 426.4 164.1 426.4 162.1V158H424.6V156.9H426.4V154.3H427.7V156.9H431.2V158H427.7V162.1C427.7 163.4 428.4 163.9 429.3 163.9C429.9 163.9 430.5 163.7 431 163.3L431.6 164.3C431 164.8 430.2 165.1 429.2 165.1ZM434.4 168.4H433L436 163.3L432.3 157H433.7L436.7 162L439.5 157H440.9L434.4 168.4ZM450.3 165.1C447.9 165.1 446.1 163.3 446.1 160.9C446.1 158.5 447.9 156.7 450.3 156.7C452.7 156.7 454.5 158.5 454.5 160.9C454.5 163.3 452.7 165.1 450.3 165.1ZM450.3 164C452 164 453.2 162.7 453.2 161C453.2 159.3 451.9 158 450.3 158C448.6 158 447.4 159.3 447.4 161C447.4 162.7 448.6 164 450.3 164ZM458.9 165H457.6V158.1H455.8V157H457.6V155.6C457.6 153.9 458.4 152.6 460.3 152.6C461.2 152.6 461.9 152.9 462.5 153.2L462 154.3C461.6 154 461 153.8 460.3 153.8C459.3 153.8 458.8 154.5 458.8 155.6V157H462V158.1H458.8V165H458.9ZM471.8 165H470.3L467.3 157H468.7L471.1 163.7L473.5 157H474.9L477.3 163.7L479.7 157H481L478 165H476.5L474.1 158.3L471.8 165ZM486.5 165.1C484.1 165.1 482.3 163.3 482.3 160.9C482.3 158.5 484.1 156.7 486.5 156.7C488.9 156.7 490.7 158.5 490.7 160.9C490.8 163.3 489 165.1 486.5 165.1ZM486.5 164C488.2 164 489.4 162.7 489.4 161C489.4 159.3 488.1 158 486.5 158C484.8 158 483.6 159.3 483.6 161C483.6 162.7 484.9 164 486.5 164ZM494.4 165H493.1V157H494.4V158.1C495 157.3 495.8 156.8 496.8 156.8C497.4 156.8 497.9 156.9 498.3 157.1L498 158.3C497.6 158.1 497.1 158 496.6 158C495.3 158 494.4 159 494.4 160.5V165ZM501.5 165H500.2V152.8H501.5V160.3H502.7L505.8 157H507.4L503.7 160.8L507.4 165.1H505.8L502.6 161.5H501.4V165H501.5ZM512.3 165.1C509.9 165.1 508.2 163.4 508.2 160.9C508.2 158.4 509.9 156.7 512.2 156.7C514.4 156.7 516 158.4 516 160.9C516 161.1 516 161.2 516 161.4H509.5C509.7 163.1 510.9 164 512.3 164C513.3 164 514.2 163.6 514.8 163L515.5 163.9C514.6 164.8 513.5 165.1 512.3 165.1ZM509.6 160.4H514.8C514.6 158.9 513.7 157.9 512.3 157.9C510.7 157.9 509.8 158.9 509.6 160.4ZM519.7 165H518.4V157H519.7V158.1C520.3 157.3 521.1 156.8 522.1 156.8C522.7 156.8 523.2 156.9 523.6 157.1L523.3 158.3C522.9 158.1 522.4 158 521.9 158C520.6 158 519.7 159 519.7 160.5V165ZM527.9 165.1C526.9 165.1 525.6 164.8 524.5 164.1L525.1 163.1C525.7 163.6 526.5 164 527.9 164C529.3 164 530.1 163.5 530.1 162.7C530.1 162.1 529.6 161.7 528.4 161.5L527.4 161.4C525.6 161.2 524.7 160.4 524.7 159.2C524.7 157.7 526 156.8 527.9 156.8C529.2 156.8 530.3 157.2 531.1 157.7L530.5 158.7C530 158.3 529 157.9 527.9 157.9C526.8 157.9 526 158.4 526 159.2C526 159.9 526.6 160.2 527.6 160.3L528.6 160.4C530.3 160.6 531.3 161.3 531.3 162.6C531.5 164.2 530.1 165.1 527.9 165.1ZM541.7 165.1C539.3 165.1 537.6 163.4 537.6 160.9C537.6 158.4 539.3 156.7 541.6 156.7C543.8 156.7 545.4 158.4 545.4 160.9C545.4 161.1 545.4 161.2 545.4 161.4H538.9C539.1 163.1 540.3 164 541.7 164C542.7 164 543.6 163.6 544.2 163L544.9 163.9C544 164.8 542.9 165.1 541.7 165.1ZM538.9 160.4H544.1C543.9 158.9 543 157.9 541.6 157.9C540.1 157.9 539.1 158.9 538.9 160.4ZM547.7 165H546.2L549.4 160.9L546.3 157H547.9L550.3 160.1L552.7 157H554.2L551.1 160.9L554.3 165H552.7L550.2 161.8L547.7 165ZM557.4 168.4H556.1V157H557.4V158.2C558 157.4 559 156.8 560.3 156.8C562.6 156.8 564.3 158.6 564.3 161C564.3 163.4 562.5 165.2 560.3 165.2C559 165.2 558 164.7 557.4 163.8V168.4ZM560.2 164C561.9 164 563.1 162.7 563.1 161C563.1 159.3 561.9 158 560.2 158C558.5 158 557.3 159.3 557.3 161C557.3 162.7 558.5 164 560.2 164ZM570.2 165.1C567.8 165.1 566.1 163.4 566.1 160.9C566.1 158.4 567.8 156.7 570.1 156.7C572.3 156.7 573.9 158.4 573.9 160.9C573.9 161.1 573.9 161.2 573.9 161.4H567.4C567.6 163.1 568.8 164 570.2 164C571.2 164 572.1 163.6 572.7 163L573.4 163.9C572.5 164.8 571.4 165.1 570.2 165.1ZM567.4 160.4H572.6C572.4 158.9 571.5 157.9 570.1 157.9C568.6 157.9 567.6 158.9 567.4 160.4ZM579.8 165.1C577.3 165.1 575.6 163.3 575.6 160.9C575.6 158.5 577.3 156.7 579.8 156.7C581 156.7 582.1 157.1 582.8 158L582 158.9C581.4 158.3 580.7 158 579.8 158C578.2 158 577 159.3 577 161C577 162.7 578.2 164 579.8 164C580.7 164 581.5 163.6 582 163.1L582.8 164C582.1 164.7 581 165.1 579.8 165.1ZM588.6 165.1C586.9 165.1 585.8 164.1 585.8 162.1V158H584V156.9H585.8V154.3H587.1V156.9H590.6V158H587.1V162.1C587.1 163.4 587.8 163.9 588.7 163.9C589.3 163.9 589.9 163.7 590.4 163.3L591 164.3C590.3 164.8 589.5 165.1 588.6 165.1ZM600.7 165.1C599 165.1 597.9 164.1 597.9 162.1V158H596.1V156.9H597.9V154.3H599.2V156.9H602.7V158H599.2V162.1C599.2 163.4 599.9 163.9 600.8 163.9C601.4 163.9 602 163.7 602.5 163.3L603.1 164.3C602.4 164.8 601.6 165.1 600.7 165.1ZM608.5 165.1C606.1 165.1 604.3 163.3 604.3 160.9C604.3 158.5 606.1 156.7 608.5 156.7C610.9 156.7 612.7 158.5 612.7 160.9C612.7 163.3 610.9 165.1 608.5 165.1ZM608.5 164C610.2 164 611.4 162.7 611.4 161C611.4 159.3 610.1 158 608.5 158C606.8 158 605.6 159.3 605.6 161C605.5 162.7 606.8 164 608.5 164ZM339.8 189H338.5V176.8H339.8V184.3H341L344.1 181H345.7L342 184.8L345.7 189.1H344.1L340.9 185.5H339.7V189H339.8ZM350.6 189.1C348.2 189.1 346.5 187.4 346.5 184.9C346.5 182.4 348.2 180.7 350.5 180.7C352.7 180.7 354.3 182.4 354.3 184.9C354.3 185.1 354.3 185.2 354.3 185.4H347.8C348 187.1 349.2 188 350.6 188C351.6 188 352.5 187.6 353.1 187L353.8 187.9C352.9 188.8 351.8 189.1 350.6 189.1ZM347.9 184.4H353.1C352.9 182.9 352 181.9 350.6 181.9C349 181.9 348.1 182.9 347.9 184.4ZM360.1 189.1C357.7 189.1 356 187.4 356 184.9C356 182.4 357.7 180.7 360 180.7C362.2 180.7 363.8 182.4 363.8 184.9C363.8 185.1 363.8 185.2 363.8 185.4H357.3C357.5 187.1 358.7 188 360.1 188C361.1 188 362 187.6 362.7 187L363.4 187.9C362.4 188.8 361.3 189.1 360.1 189.1ZM357.4 184.4H362.6C362.4 182.9 361.5 181.9 360.1 181.9C358.6 181.9 357.6 182.9 357.4 184.4ZM367.5 192.4H366.2V181H367.5V182.2C368.1 181.4 369.1 180.8 370.4 180.8C372.7 180.8 374.4 182.6 374.4 185C374.4 187.4 372.6 189.2 370.4 189.2C369.1 189.2 368.1 188.7 367.5 187.8V192.4ZM370.3 188C372 188 373.2 186.7 373.2 185C373.2 183.3 372 182 370.3 182C368.6 182 367.4 183.3 367.4 185C367.4 186.7 368.6 188 370.3 188ZM384.6 189H383.1L380.1 181H381.5L383.9 187.7L386.3 181H387.7L390.1 187.7L392.5 181H393.8L390.8 189H389.3L386.9 182.3L384.6 189ZM399.3 189.1C396.9 189.1 395.1 187.3 395.1 184.9C395.1 182.5 396.9 180.7 399.3 180.7C401.7 180.7 403.5 182.5 403.5 184.9C403.5 187.3 401.7 189.1 399.3 189.1ZM399.3 188C401 188 402.2 186.7 402.2 185C402.2 183.3 400.9 182 399.3 182C397.6 182 396.4 183.3 396.4 185C396.3 186.7 397.6 188 399.3 188ZM407.2 189H405.9V181H407.2V182.1C407.8 181.3 408.6 180.8 409.6 180.8C410.2 180.8 410.7 180.9 411.1 181.1L410.8 182.3C410.4 182.1 409.9 182 409.4 182C408.1 182 407.2 183 407.2 184.5V189ZM414.2 189H412.9V176.8H414.2V184.3H415.4L418.5 181H420.1L416.4 184.8L420.1 189.1H418.5L415.3 185.5H414.1V189H414.2ZM422.6 179C422.1 179 421.7 178.6 421.7 178.1C421.7 177.6 422.1 177.2 422.6 177.2C423.1 177.2 423.5 177.6 423.5 178.1C423.5 178.6 423.1 179 422.6 179ZM423.2 189H421.9V181H423.2V189ZM427.5 189H426.2V181H427.5V182.1C428.2 181.1 429.2 180.8 430.2 180.8C432.2 180.8 433.6 182.1 433.6 184V189H432.3V184.4C432.3 182.9 431.4 182 430 182C428.6 182 427.5 182.9 427.5 184.5V189ZM439.7 192.5C438.4 192.5 437.1 192.1 436.3 191.4L436.9 190.4C437.7 191 438.6 191.3 439.7 191.3C441.4 191.3 442.7 190.3 442.7 188.4V187.6C442.1 188.4 441.1 189 439.8 189C437.5 189 435.8 187.3 435.8 184.9C435.8 182.5 437.5 180.8 439.8 180.8C441.1 180.8 442.1 181.3 442.7 182.2V181H444V188.5C443.9 191.1 442.2 192.5 439.7 192.5ZM439.9 187.8C441.6 187.8 442.7 186.5 442.7 184.9C442.7 183.2 441.5 182 439.9 182C438.2 182 437.1 183.3 437.1 184.9C437.1 186.5 438.2 187.8 439.9 187.8ZM452.1 179C451.6 179 451.2 178.6 451.2 178.1C451.2 177.6 451.6 177.2 452.1 177.2C452.6 177.2 453 177.6 453 178.1C453 178.6 452.6 179 452.1 179ZM452.7 189H451.4V181H452.7V189ZM457 189H455.7V181H457V182.1C457.7 181.1 458.7 180.8 459.7 180.8C461.7 180.8 463.1 182.1 463.1 184V189H461.8V184.4C461.8 182.9 460.9 182 459.5 182C458.1 182 457 182.9 457 184.5V189ZM471.7 189H470.4V181H471.7V182.1C472.3 181.3 473.1 180.8 474.1 180.8C474.7 180.8 475.2 180.9 475.6 181.1L475.3 182.3C474.9 182.1 474.4 182 473.9 182C472.6 182 471.7 183 471.7 184.5V189ZM480.6 189.1C478.2 189.1 476.5 187.4 476.5 184.9C476.5 182.4 478.2 180.7 480.5 180.7C482.7 180.7 484.3 182.4 484.3 184.9C484.3 185.1 484.3 185.2 484.3 185.4H477.8C478 187.1 479.2 188 480.6 188C481.6 188 482.5 187.6 483.2 187L483.9 187.9C482.9 188.8 481.8 189.1 480.6 189.1ZM477.8 184.4H483C482.8 182.9 481.9 181.9 480.5 181.9C479 181.9 478.1 182.9 477.8 184.4ZM490.1 189.1C488.4 189.1 487.3 188.1 487.3 186.1V182H485.5V180.9H487.3V178.3H488.6V180.9H492.1V182H488.6V186.1C488.6 187.4 489.3 187.9 490.2 187.9C490.8 187.9 491.4 187.7 491.9 187.3L492.5 188.3C491.9 188.8 491.1 189.1 490.1 189.1ZM494.9 179C494.4 179 494 178.6 494 178.1C494 177.6 494.4 177.2 494.9 177.2C495.4 177.2 495.8 177.6 495.8 178.1C495.8 178.6 495.4 179 494.9 179ZM495.6 189H494.3V181H495.6V189ZM499.8 189H498.5V181H499.8V182.1C500.4 181.3 501.2 180.8 502.2 180.8C502.8 180.8 503.3 180.9 503.7 181.1L503.4 182.3C503 182.1 502.5 182 502 182C500.7 182 499.8 183 499.8 184.5V189ZM508.7 189.1C506.3 189.1 504.6 187.4 504.6 184.9C504.6 182.4 506.3 180.7 508.6 180.7C510.8 180.7 512.4 182.4 512.4 184.9C512.4 185.1 512.4 185.2 512.4 185.4H506C506.2 187.1 507.4 188 508.8 188C509.8 188 510.7 187.6 511.3 187L512 187.9C511 188.8 509.9 189.1 508.7 189.1ZM506 184.4H511.2C511 182.9 510.1 181.9 508.7 181.9C507.1 181.9 506.2 182.9 506 184.4ZM516.1 189H514.8V181H516.1V182.1C516.8 181.1 517.8 180.8 518.8 180.8C520.2 180.8 521.3 181.4 521.8 182.5C522.4 181.3 523.7 180.8 524.8 180.8C526.8 180.8 528.2 182.1 528.2 184V189H526.9V184.4C526.9 182.9 526.1 182 524.6 182C523.2 182 522.1 182.9 522.1 184.5V189H520.8V184.4C520.8 182.9 520 182 518.5 182C517.1 182 516 182.9 516 184.5V189H516.1ZM534.5 189.1C532.1 189.1 530.4 187.4 530.4 184.9C530.4 182.4 532.1 180.7 534.4 180.7C536.6 180.7 538.2 182.4 538.2 184.9C538.2 185.1 538.2 185.2 538.2 185.4H531.7C531.9 187.1 533.1 188 534.5 188C535.5 188 536.4 187.6 537 187L537.7 187.9C536.8 188.8 535.7 189.1 534.5 189.1ZM531.8 184.4H537C536.8 182.9 535.9 181.9 534.5 181.9C532.9 181.9 532 182.9 531.8 184.4ZM541.9 189H540.6V181H541.9V182.1C542.6 181.1 543.6 180.8 544.6 180.8C546.6 180.8 548 182.1 548 184V189H546.7V184.4C546.7 182.9 545.8 182 544.4 182C543 182 541.9 182.9 541.9 184.5V189ZM554.2 189.1C552.5 189.1 551.4 188.1 551.4 186.1V182H549.6V180.9H551.4V178.3H552.7V180.9H556.2V182H552.7V186.1C552.7 187.4 553.4 187.9 554.3 187.9C554.9 187.9 555.5 187.7 556 187.3L556.6 188.3C556 188.8 555.2 189.1 554.2 189.1ZM559.5 189.1C558.9 189.1 558.4 188.6 558.4 188C558.4 187.4 558.9 186.9 559.5 186.9C560.1 186.9 560.6 187.4 560.6 188C560.6 188.6 560.1 189.1 559.5 189.1ZM565.1 183.7H564V178.4L562.2 179.1V178.1L565.1 176.9V183.7Z" fill="black"/>
</g>
<path d="M91.689 173.8L110.489 136.4H89.189V126.2H123.589V134.8L104.789 173.8H91.689Z" fill="black"/>
<path d="M127.289 167.7L133.589 160.5C136.289 163.3 139.789 164.8 143.689 164.8C147.789 164.8 151.089 163.2 151.089 159.7C151.089 156.4 147.389 154.6 142.789 154.6H137.389V144.9H142.789C146.889 144.9 150.089 143.2 150.089 140C150.089 136.9 147.289 135.2 143.389 135.2C138.989 135.2 135.789 137.3 133.789 139.7L127.489 132.5C131.089 128.4 136.189 125.3 143.889 125.3C154.189 125.3 161.489 130.7 161.489 139C161.489 144 158.989 147.7 154.589 149.7C159.589 151.7 162.489 155.5 162.489 160.5C162.489 170 153.589 174.5 144.189 174.5C136.889 174.6 130.989 172.1 127.289 167.7Z" fill="black"/>
<path d="M166.489 146.6C166.489 140.7 171.089 136.4 177.189 136.4C183.389 136.4 187.889 140.7 187.889 146.6C187.889 152.5 183.289 156.8 177.189 156.8C170.989 156.8 166.489 152.5 166.489 146.6ZM173.189 173.8L201.489 137H210.689L182.389 173.8H173.189ZM180.589 146.6C180.589 144.7 179.189 143.2 177.189 143.2C175.189 143.2 173.789 144.7 173.789 146.6C173.789 148.5 175.289 150 177.189 150C179.189 150 180.589 148.5 180.589 146.6ZM196.189 164.2C196.189 158.5 200.789 154 206.889 154C213.089 154 217.589 158.3 217.589 164.2C217.589 170.1 212.989 174.4 206.889 174.4C200.789 174.5 196.189 170.1 196.189 164.2ZM210.389 164.2C210.389 162.3 208.989 160.8 206.889 160.8C204.889 160.8 203.489 162.4 203.489 164.2C203.489 166.1 204.989 167.6 206.889 167.6C208.989 167.7 210.389 166.2 210.389 164.2Z" fill="black"/>
</g>
<defs>
<clipPath id="clip0_2080_1316">
<rect width="634" height="300" fill="white"/>
</clipPath>
</defs>
</svg>
